<?xml version="1.0" standalone="no"?>
<!DOCTYPE svg PUBLIC "-//W3C//DTD SVG 20010904//EN"
 "http://www.w3.org/TR/2001/REC-SVG-20010904/DTD/svg10.dtd">
<svg version="1.0" xmlns="http://www.w3.org/2000/svg"
 width="960.000000pt" height="960.000000pt" viewBox="0 0 960.000000 960.000000"
 preserveAspectRatio="xMidYMid meet">

<g transform="translate(0.000000,960.000000) scale(0.100000,-0.100000)"
fill="#000000" stroke="none">
<path d="M4895 8539 c-701 -58 -1397 -330 -1962 -768 -51 -39 -93 -74 -93 -76
0 -3 51 33 113 79 420 312 906 528 1422 631 267 54 424 69 710 69 286 0 443
-15 710 -69 1092 -219 2017 -931 2524 -1944 257 -513 385 -1058 385 -1646 0
-416 -55 -762 -180 -1148 -430 -1317 -1563 -2278 -2919 -2477 -915 -133 -1858
95 -2607 631 -246 177 -505 416 -673 624 -102 125 -138 165 -99 110 125 -179
460 -530 649 -681 508 -405 1091 -669 1710 -774 395 -67 847 -65 1255 5 502
86 1031 305 1460 603 253 176 558 457 743 683 484 593 768 1280 849 2049 15
148 15 572 0 720 -52 494 -192 966 -411 1386 -599 1145 -1712 1886 -2996 1994
-138 11 -444 11 -590 -1z"/>
<path d="M2249 7326 c18 -19 56 -46 84 -61 68 -36 107 -73 107 -102 0 -30 -32
-45 -78 -38 -35 6 -36 5 -18 -9 11 -9 38 -16 60 -16 23 0 50 -7 60 -15 30 -23
114 -19 156 7 19 11 46 24 60 29 l25 8 -22 6 c-55 17 -11 35 88 35 44 0 71 5
85 16 18 14 16 15 -30 10 -27 -3 -77 -1 -111 6 -59 10 -65 10 -90 -10 -37 -30
-57 -28 -83 8 -26 35 -74 61 -157 85 -33 9 -81 30 -108 46 -62 38 -68 37 -28
-5z"/>
<path d="M1190 7179 c-30 -11 -80 -24 -110 -28 l-55 -8 33 -14 c18 -7 31 -16
29 -19 -20 -33 -47 -103 -43 -108 10 -10 89 51 114 88 13 19 29 38 36 42 40
23 127 -47 188 -150 27 -45 27 -45 33 -19 4 15 4 49 0 75 -6 38 -15 55 -51 89
-28 27 -42 48 -38 58 9 22 -66 19 -136 -6z"/>
<path d="M3300 7051 c0 -18 90 -88 159 -125 148 -78 166 -174 30 -164 -27 1
-49 0 -49 -3 0 -11 47 -27 96 -34 27 -4 58 -12 69 -18 64 -33 147 -26 215 19
21 14 50 27 64 28 24 1 26 16 2 16 -8 0 -19 6 -25 14 -17 20 6 26 106 26 79 0
153 19 153 39 0 3 -46 6 -102 6 -57 0 -117 4 -134 8 -24 6 -38 3 -68 -18 -51
-34 -78 -32 -110 9 -35 46 -77 71 -162 94 -80 22 -138 47 -201 87 -24 14 -43
22 -43 16z"/>
<path d="M2135 6819 c-45 -16 -101 -29 -127 -29 -47 0 -63 -12 -32 -24 9 -3
27 -6 40 -6 27 0 31 -12 9 -30 -15 -13 -59 -120 -51 -127 14 -14 106 57 142
110 16 23 33 45 39 49 15 12 68 9 91 -5 36 -21 136 -140 159 -189 12 -26 25
-45 29 -41 12 12 6 134 -9 171 -8 20 -36 56 -62 79 -41 35 -45 43 -34 57 24
29 -100 20 -194 -15z"/>
<path d="M1020 6719 c0 -13 78 -72 138 -104 102 -54 109 -115 16 -125 l-49 -6
40 -12 c22 -6 47 -12 56 -12 9 0 33 -7 52 -15 53 -22 84 -18 160 19 57 27 65
34 47 39 -44 12 -7 27 65 27 68 0 125 14 125 30 0 3 -27 4 -60 2 -33 -2 -81 1
-107 7 -42 11 -49 10 -74 -8 -40 -30 -56 -26 -108 23 -35 32 -61 46 -101 56
-30 7 -88 29 -127 50 -40 21 -73 34 -73 29z"/>
<path d="M5160 6390 l-105 -79 -75 -1 -75 0 -94 -94 -93 -93 51 -44 c28 -24
51 -48 51 -52 0 -4 -53 -70 -119 -145 l-118 -137 -46 -150 c-44 -143 -52 -159
-100 -190 -13 -8 -14 -25 -8 -105 10 -129 -13 -202 -99 -319 l-62 -84 26 -66
c14 -37 26 -72 26 -79 0 -7 -12 -36 -26 -64 -25 -49 -25 -51 -7 -68 10 -9 45
-42 79 -73 l61 -57 584 15 c321 8 612 15 647 15 l63 0 40 63 c37 60 43 65 101
82 l61 19 -7 131 c-5 101 -16 168 -47 300 l-41 170 127 235 c99 184 125 240
120 260 -23 95 -23 94 -90 135 -52 32 -65 44 -61 60 23 96 23 96 -57 202 l-75
99 -123 13 -124 12 -78 61 c-44 33 -106 71 -140 84 -33 13 -61 24 -61 23 -1 0
-48 -36 -106 -79z m184 16 c31 -14 86 -50 124 -80 l69 -56 111 -13 c62 -8 113
-16 115 -18 2 -2 33 -46 69 -97 l66 -94 -14 -51 c-13 -50 -13 -53 8 -67 89
-60 103 -75 115 -129 l12 -54 -114 -228 -114 -228 39 -168 c34 -145 40 -184
40 -284 l0 -115 -52 -17 c-48 -15 -56 -22 -87 -77 l-35 -60 -65 0 c-37 0 -298
-7 -581 -15 l-515 -14 -72 71 -72 71 26 50 c27 54 26 66 -5 144 l-21 51 58 84
c76 110 96 179 87 305 l-6 92 30 17 c21 13 34 32 43 64 7 25 26 91 43 148 29
101 30 104 137 234 l107 132 -46 47 -47 47 84 91 84 91 66 0 67 0 94 74 c51
41 94 75 95 75 1 1 27 -10 57 -23z"/>
<path d="M6454 6408 c-37 -14 -55 -28 -66 -50 l-14 -31 -80 2 -81 2 -21 -73
c-12 -40 -21 -80 -20 -88 3 -41 -5 -63 -36 -97 -18 -21 -38 -55 -44 -76 -10
-35 -8 -43 18 -84 l29 -45 7 28 c4 16 17 40 30 54 27 30 57 97 49 110 -4 6 4
41 16 80 l23 69 72 -6 c73 -6 73 -6 86 22 8 19 30 36 65 52 l53 23 84 -54 c68
-44 84 -59 89 -85 4 -19 81 -132 193 -281 l186 -250 47 0 c61 0 144 -44 271
-145 81 -64 109 -79 190 -106 88 -30 101 -38 174 -106 44 -41 103 -90 132
-108 54 -35 110 -100 120 -141 9 -34 -27 -77 -99 -120 -34 -21 -63 -38 -65
-39 -1 -1 5 -19 14 -40 l15 -38 -67 -61 c-37 -34 -99 -79 -138 -100 l-71 -40
-640 -6 c-352 -4 -643 -4 -648 0 -4 3 -19 66 -34 140 -23 120 -25 139 -13 180
7 25 18 74 25 110 l11 65 -39 80 -39 80 12 120 c19 173 16 207 -17 263 -43 70
-56 107 -48 140 4 21 0 40 -16 66 -22 38 -32 38 -43 0 -5 -15 6 -46 35 -100
59 -113 61 -126 42 -309 l-16 -160 43 -84 c47 -94 47 -111 9 -259 l-19 -73 25
-137 c14 -75 29 -146 32 -156 5 -18 24 -19 702 -12 l696 8 76 41 c42 23 109
73 149 110 l72 68 -15 44 -14 44 69 42 c38 23 80 58 93 77 23 33 23 37 9 71
-21 51 -61 99 -106 130 -22 14 -86 68 -143 119 -99 89 -108 94 -204 127 -90
30 -111 42 -201 115 -142 115 -240 170 -305 170 l-50 0 -195 268 c-112 155
-200 285 -209 310 -12 38 -24 50 -98 98 -46 30 -87 53 -91 53 -4 -1 -30 -10
-58 -21z"/>
<path d="M765 5403 c-30 -5 -65 -29 -65 -45 0 -4 16 -8 35 -8 22 0 43 -8 55
-20 19 -19 20 -33 20 -272 -1 -201 -4 -258 -15 -278 -8 -14 -14 -28 -15 -32 0
-12 183 -9 218 3 44 15 48 36 7 43 -57 11 -65 27 -65 125 l0 88 73 8 72 7 113
-119 c61 -65 115 -129 118 -141 6 -23 9 -24 95 -20 76 3 92 6 111 26 l22 22
-22 0 c-49 0 -101 35 -204 138 -60 59 -108 109 -108 112 0 3 26 15 57 25 74
25 138 85 147 138 17 93 -63 166 -212 193 -72 12 -364 17 -437 7z m376 -54
c105 -23 157 -112 109 -187 -31 -50 -110 -80 -257 -97 l-53 -6 0 124 c0 83 4
129 13 140 24 34 101 45 188 26z"/>
<path d="M2639 5117 l-24 -9 33 -14 32 -14 0 -151 c0 -84 -5 -159 -10 -170
-10 -18 -7 -19 53 -19 43 0 68 5 76 14 9 11 6 15 -14 20 l-26 7 3 172 3 172
-51 1 c-28 0 -62 -4 -75 -9z"/>
<path d="M1607 5113 c-14 -13 -6 -22 21 -25 l27 -3 3 -153 c1 -94 -2 -160 -8
-172 -10 -20 -7 -20 154 -20 158 0 216 8 216 30 0 6 -49 10 -133 10 -90 0
-137 4 -145 12 -7 7 -12 40 -12 80 l0 68 93 0 c77 0 97 3 110 18 15 16 10 17
-91 17 l-107 0 0 55 0 55 99 3 c65 2 102 -1 106 -8 8 -13 72 10 84 29 8 12
-405 16 -417 4z"/>
<path d="M2077 5113 c-4 -3 5 -14 21 -23 17 -11 36 -38 51 -76 13 -32 48 -107
78 -166 42 -85 58 -108 74 -108 51 0 79 36 193 253 l68 128 -83 -3 c-55 -2
-84 -7 -87 -15 -2 -8 6 -13 21 -13 42 0 54 -25 35 -76 -17 -48 -109 -214 -119
-214 -6 0 -85 163 -114 238 -10 23 -15 51 -12 62 5 18 0 20 -57 20 -35 0 -66
-3 -69 -7z"/>
<path d="M2917 5113 c-14 -13 -6 -23 17 -23 13 0 27 -7 30 -16 10 -27 7 -294
-4 -315 -10 -18 -6 -19 159 -19 153 0 171 2 192 20 l24 19 -136 1 c-91 0 -139
4 -147 12 -7 7 -12 40 -12 80 l0 68 93 0 c77 0 97 3 110 18 15 16 10 17 -94
14 l-110 -4 3 59 3 58 99 3 c65 2 102 -1 106 -8 9 -14 80 13 80 29 0 12 -402
16 -413 4z"/>
<path d="M3385 5109 c-4 -6 3 -13 15 -16 17 -5 42 -46 106 -179 76 -160 85
-174 109 -174 33 0 64 34 107 116 18 35 35 64 38 64 3 0 26 -40 50 -90 35 -72
48 -90 66 -90 43 0 74 41 154 206 44 90 80 166 80 169 0 12 -153 0 -158 -12
-2 -8 6 -13 21 -13 58 0 53 -48 -20 -195 -51 -102 -52 -102 -78 -53 -47 88
-107 240 -102 259 5 17 -1 19 -58 19 -65 0 -95 -15 -52 -25 17 -5 32 -22 47
-55 l23 -49 -32 -73 c-17 -40 -40 -83 -50 -96 l-17 -24 -59 124 c-37 77 -59
137 -59 160 l-1 38 -62 0 c-34 0 -65 -5 -68 -11z"/>
<path d="M770 4505 c0 -13 188 -15 1635 -15 1447 0 1635 2 1635 15 0 13 -188
15 -1635 15 -1447 0 -1635 -2 -1635 -15z"/>
<path d="M780 4012 c-47 -24 -48 -38 -2 -46 21 -3 47 -15 58 -27 18 -20 19
-39 19 -313 0 -260 -2 -294 -18 -323 l-18 -33 125 0 c117 0 127 1 153 24 l27
24 -41 6 c-76 13 -78 16 -81 180 l-4 146 281 0 281 0 0 -157 c0 -121 -4 -165
-15 -187 -8 -15 -15 -30 -15 -32 0 -2 56 -4 124 -4 117 0 127 2 152 23 l27 24
-41 7 c-23 3 -51 15 -62 26 -19 19 -20 34 -20 303 0 259 2 285 20 326 11 24
20 44 20 45 0 0 -58 1 -129 1 -113 0 -132 -2 -150 -19 -29 -26 -27 -32 15 -39
67 -11 74 -26 74 -149 l0 -108 -277 2 -278 3 0 120 c1 93 5 127 18 152 9 18
17 33 17 35 0 2 -51 4 -113 5 -90 2 -120 -1 -147 -15z"/>
<path d="M2291 4017 c-34 -17 -37 -35 -7 -47 14 -5 26 -15 26 -21 0 -7 -23
-54 -51 -106 -76 -141 -132 -258 -174 -358 -20 -49 -50 -116 -66 -149 -16 -32
-29 -60 -29 -62 0 -2 44 -4 98 -4 72 0 103 4 120 16 29 20 28 27 -8 41 -36 13
-38 40 -11 118 l18 50 257 3 257 2 16 -37 c21 -49 29 -144 14 -172 -12 -21
-11 -21 109 -21 118 0 121 1 148 27 l27 27 -38 7 c-21 3 -45 12 -52 20 -8 8
-39 72 -70 144 -88 205 -242 475 -292 515 -23 18 -41 20 -147 20 -76 0 -130
-5 -145 -13z m207 -94 c51 -75 136 -226 167 -297 l25 -56 -226 0 -226 0 68
128 c38 70 86 162 108 205 22 42 41 77 42 77 2 0 21 -26 42 -57z"/>
<path d="M4790 4014 c-140 -37 -250 -119 -298 -222 -23 -48 -27 -71 -27 -147
0 -82 3 -97 33 -157 75 -153 240 -231 487 -231 243 0 410 83 483 240 23 49 27
71 27 148 0 77 -4 99 -27 147 -49 105 -159 186 -303 223 -77 20 -299 19 -375
-1z m366 -76 c60 -32 119 -94 147 -157 32 -72 30 -208 -4 -281 -31 -66 -86
-122 -148 -152 -64 -31 -225 -38 -306 -13 -106 34 -184 127 -206 247 -29 159
46 304 187 364 53 22 70 24 169 21 95 -3 117 -6 161 -29z"/>
<path d="M7292 4010 c-92 -24 -161 -61 -228 -123 -74 -67 -107 -137 -112 -241
-5 -107 20 -177 88 -244 101 -100 241 -143 460 -145 159 -1 241 12 292 46 l33
23 5 140 c4 100 9 146 19 158 8 9 12 17 10 19 -2 1 -78 0 -170 -3 -135 -4
-170 -8 -192 -23 -15 -9 -27 -21 -27 -26 0 -5 38 -11 84 -12 112 -5 126 -17
126 -110 0 -128 -21 -144 -194 -144 -117 0 -124 1 -188 33 -127 62 -185 160
-176 298 12 183 142 303 340 312 97 5 145 -1 174 -22 18 -14 18 -15 0 -35 -19
-21 -19 -21 10 -21 85 0 214 36 214 59 0 12 -92 48 -170 66 -96 22 -305 19
-398 -5z"/>
<path d="M3665 4010 c-12 -4 -26 -15 -34 -23 -11 -14 -7 -17 26 -22 64 -11 74
-16 84 -42 5 -13 9 -151 9 -306 0 -231 -3 -287 -15 -311 -8 -15 -15 -30 -15
-32 0 -10 581 -3 607 7 29 10 83 57 83 70 0 4 -15 3 -32 -2 -18 -5 -109 -12
-203 -16 -184 -6 -247 3 -265 37 -13 24 -9 606 4 633 7 16 -1 17 -110 16 -66
0 -128 -4 -139 -9z"/>
<path d="M5702 4004 c-32 -22 -27 -33 18 -40 79 -13 75 5 75 -341 0 -233 -3
-314 -13 -330 l-13 -23 114 0 c107 0 115 1 136 24 l23 24 -43 7 c-87 13 -83 2
-89 295 -3 143 -3 260 0 259 11 -3 560 -578 566 -593 5 -14 25 -16 134 -16
110 0 129 2 143 18 24 26 22 29 -25 35 -78 11 -78 9 -78 344 0 244 3 299 15
323 l16 30 -121 0 c-107 0 -122 -2 -140 -20 -30 -30 -25 -37 31 -42 28 -3 57
-11 64 -19 11 -11 15 -71 17 -277 l3 -264 -212 219 c-117 120 -250 259 -295
310 l-83 92 -110 1 c-84 0 -116 -4 -133 -16z"/>
<path d="M2415 3179 c-17 -9 -75 -79 -75 -91 0 -5 127 1 157 8 12 2 36 24 53
49 l31 45 -73 -1 c-40 0 -82 -5 -93 -10z"/>
</g>
</svg>
